HIERARCHY
ROOT hip
{
  OFFSET 0.0 0.0 0.0
  CHANNELS 6 Xposition Yposition Zposition Zrotation Yrotation Xrotation
  JOINT torso
  {
    OFFSET 0.0 0.0 0.0
    CHANNELS 3 Zrotation Xrotation Yrotation
    JOINT neck
    {
      OFFSET -31.42098999999993 328.8025209999999 74.3554680000002
      CHANNELS 3 Zrotation Xrotation Yrotation
      JOINT head
      {
        OFFSET 3.3519900000001144 303.81732099999994 206.53942900000015
        CHANNELS 3 Zrotation Xrotation Yrotation
        End Site
        {
          OFFSET 0.0 0.0 0.0
        }
      }
    }
    JOINT left_collar
    {
      OFFSET -31.42098999999993 328.8025209999999 74.3554680000002
      CHANNELS 3 Zrotation Xrotation Yrotation
      JOINT left_upper_arm
      {
        OFFSET -124.490479 -8.162841999999841 8.226441000000023
        CHANNELS 3 Zrotation Xrotation Yrotation
        JOINT left_forearm
        {
          OFFSET -253.595764 -1.5758060000000569 105.0729980000001
          CHANNELS 3 Zrotation Xrotation Yrotation
          JOINT left_hand
          {
            OFFSET -269.48803699999996 0.1478270000000066 -55.346191999999974
            CHANNELS 3 Zrotation Xrotation Yrotation
            End Site
            {
              OFFSET 0.0 0.0 0.0
            }
          }
        }
      }
    }
    JOINT right_collar
    {
      OFFSET -31.42098999999993 328.8025209999999 74.3554680000002
      CHANNELS 3 Zrotation Xrotation Yrotation
      JOINT right_upper_arm
      {
        OFFSET 162.02484099999998 0.46441600000002836 2.2303470000001653
        CHANNELS 3 Zrotation Xrotation Yrotation
        JOINT right_forearm
        {
          OFFSET 240.01246700000004 -25.835875999999985 121.34179699999959
          CHANNELS 3 Zrotation Xrotation Yrotation
          JOINT right_hand
          {
            OFFSET 252.48539699999992 18.910399999999868 -67.53466800000001
            CHANNELS 3 Zrotation Xrotation Yrotation
            End Site
            {
              OFFSET 0.0 0.0 0.0
            }
          }
        }
      }
    }
  }
}
MOTION
Frames: 6
Frame Time: 0.01
-31.87361299999974 226.15333599999968 1432.968262 0.23672731495338833 -0.7943950345023784 -10.943721980909883 0.6322105788098963 -0.38071408865233913 -0.1814112226354984 -2.8420570353644514 0.45150842341854885 1.9217799083495504 0.0 0.0 0.0 5.296805596708845 -1.2253006483131121 14.074781036511045 -7.149270690587115 -8.40854975170541 -57.58376022539059 -7.769981668292203 -1.8045835284815457 -48.95840437845344 0.0 0.0 0.0 4.8052299039950075 0.06755372686092877 -2.983295460880418 4.674172210710464 0.06725348904708643 35.08911273375688 -1.7054189208216652 -2.84647838497194 42.75785463040862 0.0 0.0 0.0
-33.42167699999974 226.15801999999968 1432.933594 0.2973701114275677 -1.0086921272223341 -10.720617956327814 0.6451722253412459 -0.15690193054129598 -0.1618150207218552 -2.772386476581926 0.41130795928185854 1.8754955317241617 0.0 0.0 0.0 5.226604018400748 -1.2029337742993542 13.910764475698315 -7.105328076889174 -8.35351839124098 -57.58153606447142 -7.707244703253325 -1.7872670187424342 -48.9175788820474 0.0 0.0 0.0 4.786765559309992 0.07683164521088108 -3.1960498133828112 4.644684876261145 0.0982250584152231 35.11447932377514 -1.7171510149785394 -2.847376124489194 42.798063645154016 0.0 0.0 0.0
-34.94363799999974 226.1933749999997 1432.904541 0.5116997170823073 -0.8860317286370263 -10.769523249027863 0.4593718256257903 -0.25467374304062645 -0.12922557730356501 -2.7919412004006925 0.35091073455033917 1.8902270570683128 0.0 0.0 0.0 5.240616033310128 -1.2249101806278355 14.100397323020568 -7.14235260413589 -8.4160198555275 -57.694408149472814 -7.750777102384437 -1.7918374148052976 -48.84228408390355 0.0 0.0 0.0 4.938481566426382 0.07302408668989178 -3.0665953456032993 4.453672164806155 0.27532996500927037 35.013727807051524 -1.7700115979712403 -2.8505546901661454 42.96533898072708 0.0 0.0 0.0
-36.48110199999974 226.2345889999997 1432.844482 0.3488589268848857 -0.819001763020456 -10.677738995906507 0.6880306460341841 -0.31076655827455174 -0.18714914234409424 -2.816871063044945 0.3636932714752017 1.90683688114174 0.0 0.0 0.0 5.352475849708093 -1.2169047931998274 13.971698861250076 -7.24979884571911 -8.49857334403392 -57.345041519556396 -7.731092938733971 -1.7987216418091123 -49.00118655553584 0.0 0.0 0.0 4.648340524070133 0.07003508574945308 -3.0847618501832743 4.6660824678671595 0.07465768433833615 35.08362465053781 -1.713384239252534 -2.8581105646779124 42.98351114656149 0.0 0.0 0.0
-38.34916699999974 226.2178499999997 1432.885132 0.5782165357063677 -0.17117382071358347 -11.512315849370433 0.2700936338716027 -0.8386660730937303 -0.14299733222098338 -3.0130794933104204 0.1412380982162802 2.0456250685818826 0.0 0.0 0.0 5.368001586190357 -1.3115217744224112 14.801985814313488 -7.146528533673099 -8.383354198848602 -57.43358312111508 -7.738163068659434 -1.7895989095575642 -48.85126315988712 0.0 0.0 0.0 4.449966893123628 0.0443084224818657 -2.530887380637014 5.2650316974549884 -0.46987257235328167 35.58483102380442 -1.6250807584261877 -2.8592909495763594 42.82304577098199 0.0 0.0 0.0
-39.940379999999735 226.18621799999968 1432.761475 0.46652965022997606 -0.6528575431392234 -10.716845342488062 0.5853413518512292 -0.40254672760771265 -0.17284184101012706 -2.786825820343358 0.20329063141102477 1.8903262964491632 0.0 0.0 0.0 5.1511993583384434 -1.2130055149266 14.039918340104695 -7.143467758455825 -8.354866780220883 -57.26270636100526 -7.754054134386262 -1.7987329001122303 -48.92786039829586 0.0 0.0 0.0 4.880502767089173 0.0666384611619786 -2.942833801834252 4.50508211167303 0.23177077087804787 35.08570319677755 -1.7470094611775298 -2.860119481206346 43.090256536641505 0.0 0.0 0.0
